<svg width="100%" height="100%" viewBox="0 0 70 70" version="1.1" xmlns="http://www.w3.org/2000/svg" xmlns:xlink="http://www.w3.org/1999/xlink" xml:space="preserve" style="fill-rule:evenodd;clip-rule:evenodd;stroke-linejoin:round;stroke-miterlimit:1.41421;">
<g>
<path d="M38.144,3.079c-2.091,-0.206 -4.197,-0.206 -6.288,0l-0.945,4.965c-2.001,0.303 -3.963,0.829 -5.848,1.567l-3.301,-3.828c-1.914,0.867 -3.738,1.92 -5.446,3.144l1.665,4.773c-1.582,1.263 -3.018,2.699 -4.281,4.281l-4.773,-1.665c-1.224,1.708 -2.277,3.532 -3.144,5.446l3.828,3.301c-0.738,1.885 -1.264,3.847 -1.567,5.848l-4.965,0.945c-0.206,2.091 -0.206,4.197 0,6.288l4.965,0.945c0.303,2.001 0.829,3.963 1.567,5.848l-3.828,3.301c0.867,1.914 1.92,3.738 3.144,5.446l4.773,-1.665c1.263,1.582 2.699,3.018 4.281,4.281l-1.665,4.773c1.708,1.224 3.532,2.277 5.446,3.144l3.301,-3.828c1.885,0.738 3.847,1.264 5.848,1.567l0.945,4.965c2.091,0.206 4.197,0.206 6.288,0l0.945,-4.965c2.001,-0.303 3.963,-0.829 5.848,-1.567l3.301,3.828c1.914,-0.867 3.738,-1.92 5.446,-3.144l-1.665,-4.773c1.582,-1.263 3.018,-2.699 4.281,-4.281l4.773,1.665c1.224,-1.708 2.277,-3.532 3.144,-5.446l-3.828,-3.301c0.738,-1.885 1.264,-3.847 1.567,-5.848l4.965,-0.945c0.206,-2.091 0.206,-4.197 0,-6.288l-4.965,-0.945c-0.303,-2.001 -0.829,-3.963 -1.567,-5.848l3.828,-3.301c-0.867,-1.914 -1.92,-3.738 -3.144,-5.446l-4.773,1.665c-1.263,-1.582 -2.699,-3.018 -4.281,-4.281l1.665,-4.773c-1.708,-1.224 -3.532,-2.277 -5.446,-3.144l-3.301,3.828c-1.885,-0.738 -3.847,-1.264 -5.848,-1.567l-0.945,-4.965Zm-3.144,25.506c3.541,0 6.415,2.874 6.415,6.415c0,3.541 -2.874,6.415 -6.415,6.415c-3.541,0 -6.415,-2.874 -6.415,-6.415c0,-3.541 2.874,-6.415 6.415,-6.415Z" style="fill:#d9dfde;"/><path d="M35.197,2.925l0.196,0.001l0.197,0.003l0.197,0.005l0.197,0.005l0.196,0.007l0.197,0.008l0.196,0.009l0.197,0.01l0.196,0.011l0.197,0.013l0.196,0.014l0.197,0.015l0.196,0.016l0.196,0.018l0.196,0.019l0.945,4.965l0.187,0.029l0.188,0.03l0.187,0.032l0.186,0.033l0.187,0.034l0.186,0.036l0.186,0.037l0.186,0.038l0.185,0.039l0.185,0.041l0.185,0.042l0.185,0.043l0.184,0.045l0.184,0.046l0.183,0.047l0.184,0.048l0.182,0.05l0.183,0.051l0.182,0.052l0.182,0.054l0.181,0.055l0.181,0.056l0.181,0.057l0.18,0.058l0.18,0.06l0.18,0.061l0.179,0.063l0.179,0.063l0.178,0.065l0.178,0.066l0.177,0.067l0.177,0.069l3.301,-3.828l0.179,0.082l0.179,0.083l0.178,0.084l0.177,0.085l0.177,0.086l0.177,0.087l0.176,0.089l0.175,0.089l0.175,0.091l0.174,0.091l0.174,0.093l0.173,0.093l0.172,0.095l0.172,0.096l0.171,0.097l0.171,0.097l0.17,0.099l0.17,0.1l0.168,0.101l0.169,0.102l0.167,0.103l0.167,0.104l0.167,0.105l0.165,0.107l0.165,0.107l0.165,0.108l0.164,0.109l0.163,0.11l0.162,0.111l0.162,0.113l0.161,0.113l0.161,0.114l-1.665,4.773l0.148,0.119l0.147,0.12l0.146,0.121l0.145,0.122l0.145,0.122l0.143,0.124l0.143,0.125l0.142,0.126l0.14,0.127l0.14,0.128l0.139,0.129l0.139,0.13l0.137,0.13l0.136,0.132l0.135,0.133l0.135,0.133l0.133,0.135l0.133,0.135l0.132,0.136l0.13,0.137l0.13,0.139l0.129,0.139l0.128,0.14l0.127,0.14l0.126,0.142l0.125,0.143l0.124,0.143l0.122,0.145l0.122,0.145l0.121,0.146l0.12,0.147l0.119,0.148l4.773,-1.665l0.114,0.161l0.113,0.161l0.113,0.162l0.111,0.162l0.11,0.163l0.109,0.164l0.108,0.165l0.107,0.165l0.107,0.165l0.105,0.167l0.104,0.167l0.103,0.167l0.102,0.169l0.101,0.168l0.1,0.17l0.099,0.17l0.097,0.171l0.097,0.171l0.096,0.172l0.095,0.172l0.093,0.173l0.093,0.174l0.091,0.174l0.091,0.175l0.089,0.175l0.089,0.176l0.087,0.177l0.086,0.177l0.085,0.177l0.084,0.178l0.083,0.179l0.082,0.179l-3.828,3.301l0.069,0.177l0.067,0.177l0.066,0.178l0.065,0.178l0.063,0.179l0.063,0.179l0.061,0.18l0.06,0.18l0.058,0.18l0.057,0.181l0.056,0.181l0.055,0.181l0.054,0.182l0.052,0.182l0.051,0.183l0.05,0.182l0.048,0.184l0.047,0.183l0.046,0.184l0.045,0.184l0.043,0.185l0.042,0.185l0.041,0.185l0.039,0.185l0.038,0.186l0.037,0.186l0.036,0.186l0.034,0.187l0.033,0.186l0.032,0.187l0.03,0.188l0.029,0.187l4.965,0.945l0.019,0.196l0.018,0.196l0.016,0.196l0.015,0.197l0.014,0.196l0.013,0.197l0.011,0.196l0.01,0.197l0.009,0.196l0.008,0.197l0.007,0.196l0.005,0.197l0.005,0.197l0.003,0.197l0.001,0.196l0.001,0.197l-0.001,0.197l-0.001,0.196l-0.003,0.197l-0.005,0.197l-0.005,0.197l-0.007,0.196l-0.008,0.197l-0.009,0.196l-0.01,0.197l-0.011,0.196l-0.013,0.197l-0.014,0.196l-0.015,0.197l-0.016,0.196l-0.018,0.196l-0.019,0.196l-4.965,0.945l-0.029,0.187l-0.03,0.188l-0.032,0.187l-0.033,0.186l-0.034,0.187l-0.036,0.186l-0.037,0.186l-0.038,0.186l-0.039,0.185l-0.041,0.185l-0.042,0.185l-0.043,0.185l-0.045,0.184l-0.046,0.184l-0.047,0.183l-0.048,0.184l-0.05,0.182l-0.051,0.183l-0.052,0.182l-0.054,0.182l-0.055,0.181l-0.056,0.181l-0.057,0.181l-0.058,0.18l-0.06,0.18l-0.061,0.18l-0.063,0.179l-0.063,0.179l-0.065,0.178l-0.066,0.178l-0.067,0.177l-0.069,0.177l3.828,3.301l-0.082,0.179l-0.083,0.179l-0.084,0.178l-0.085,0.177l-0.086,0.177l-0.087,0.177l-0.089,0.176l-0.089,0.175l-0.091,0.175l-0.091,0.174l-0.093,0.174l-0.093,0.173l-0.095,0.172l-0.096,0.172l-0.097,0.171l-0.097,0.171l-0.099,0.17l-0.1,0.17l-0.101,0.168l-0.102,0.169l-0.103,0.167l-0.104,0.167l-0.105,0.167l-0.107,0.165l-0.107,0.165l-0.108,0.165l-0.109,0.164l-0.11,0.163l-0.111,0.162l-0.113,0.162l-0.113,0.161l-0.114,0.161l-4.773,-1.665l-0.119,0.148l-0.12,0.147l-0.121,0.146l-0.122,0.145l-0.122,0.145l-0.124,0.143l-0.125,0.143l-0.126,0.142l-0.127,0.14l-0.128,0.14l-0.129,0.139l-0.13,0.139l-0.13,0.137l-0.132,0.136l-0.133,0.135l-0.133,0.135l-0.135,0.133l-0.135,0.133l-0.136,0.132l-0.137,0.13l-0.139,0.13l-0.139,0.129l-0.14,0.128l-0.14,0.127l-0.142,0.126l-0.143,0.125l-0.143,0.124l-0.145,0.122l-0.145,0.122l-0.146,0.121l-0.147,0.12l-0.148,0.119l1.665,4.773l-0.161,0.114l-0.161,0.113l-0.162,0.113l-0.162,0.111l-0.163,0.11l-0.164,0.109l-0.165,0.108l-0.165,0.107l-0.165,0.107l-0.167,0.105l-0.167,0.104l-0.167,0.103l-0.169,0.102l-0.168,0.101l-0.17,0.1l-0.17,0.099l-0.171,0.097l-0.171,0.097l-0.172,0.096l-0.172,0.095l-0.173,0.093l-0.174,0.093l-0.174,0.091l-0.175,0.091l-0.175,0.089l-0.176,0.089l-0.177,0.087l-0.177,0.086l-0.177,0.085l-0.178,0.084l-0.179,0.083l-0.179,0.082l-3.301,-3.828l-0.177,0.069l-0.177,0.067l-0.178,0.066l-0.178,0.065l-0.179,0.063l-0.179,0.063l-0.18,0.061l-0.18,0.06l-0.18,0.058l-0.181,0.057l-0.181,0.056l-0.181,0.055l-0.182,0.054l-0.182,0.052l-0.183,0.051l-0.182,0.05l-0.184,0.048l-0.183,0.047l-0.184,0.046l-0.184,0.045l-0.185,0.043l-0.185,0.042l-0.185,0.041l-0.185,0.039l-0.186,0.038l-0.186,0.037l-0.186,0.036l-0.187,0.034l-0.186,0.033l-0.187,0.032l-0.188,0.03l-0.187,0.029l-0.945,4.965l-0.196,0.019l-0.196,0.018l-0.196,0.016l-0.197,0.015l-0.196,0.014l-0.197,0.013l-0.196,0.011l-0.197,0.01l-0.196,0.009l-0.197,0.008l-0.196,0.007l-0.197,0.005l-0.197,0.005l-0.197,0.003l-0.196,0.001l-0.197,0.001l-0.197,-0.001l-0.196,-0.001l-0.197,-0.003l-0.197,-0.005l-0.197,-0.005l-0.196,-0.007l-0.197,-0.008l-0.196,-0.009l-0.197,-0.01l-0.196,-0.011l-0.197,-0.013l-0.196,-0.014l-0.197,-0.015l-0.196,-0.016l-0.196,-0.018l-0.196,-0.019l-0.945,-4.965l-0.187,-0.029l-0.188,-0.03l-0.187,-0.032l-0.186,-0.033l-0.187,-0.034l-0.186,-0.036l-0.186,-0.037l-0.186,-0.038l-0.185,-0.039l-0.185,-0.041l-0.185,-0.042l-0.185,-0.043l-0.184,-0.045l-0.184,-0.046l-0.183,-0.047l-0.184,-0.048l-0.182,-0.05l-0.183,-0.051l-0.182,-0.052l-0.182,-0.054l-0.181,-0.055l-0.181,-0.056l-0.181,-0.057l-0.18,-0.058l-0.18,-0.06l-0.18,-0.061l-0.179,-0.063l-0.179,-0.063l-0.178,-0.065l-0.178,-0.066l-0.177,-0.067l-0.177,-0.069l-3.301,3.828l-0.179,-0.082l-0.179,-0.083l-0.178,-0.084l-0.177,-0.085l-0.177,-0.086l-0.177,-0.087l-0.176,-0.089l-0.175,-0.089l-0.175,-0.091l-0.174,-0.091l-0.174,-0.093l-0.173,-0.093l-0.172,-0.095l-0.172,-0.096l-0.171,-0.097l-0.171,-0.097l-0.17,-0.099l-0.17,-0.1l-0.168,-0.101l-0.169,-0.102l-0.167,-0.103l-0.167,-0.104l-0.167,-0.105l-0.165,-0.107l-0.165,-0.107l-0.165,-0.108l-0.164,-0.109l-0.163,-0.11l-0.162,-0.111l-0.162,-0.113l-0.161,-0.113l-0.161,-0.114l1.665,-4.773l-0.148,-0.119l-0.147,-0.12l-0.146,-0.121l-0.145,-0.122l-0.145,-0.122l-0.143,-0.124l-0.143,-0.125l-0.142,-0.126l-0.14,-0.127l-0.14,-0.128l-0.139,-0.129l-0.139,-0.13l-0.137,-0.13l-0.136,-0.132l-0.135,-0.133l-0.135,-0.133l-0.133,-0.135l-0.133,-0.135l-0.132,-0.136l-0.13,-0.137l-0.13,-0.139l-0.129,-0.139l-0.128,-0.14l-0.127,-0.14l-0.126,-0.142l-0.125,-0.143l-0.124,-0.143l-0.122,-0.145l-0.122,-0.145l-0.121,-0.146l-0.12,-0.147l-0.119,-0.148l-4.773,1.665l-0.114,-0.161l-0.113,-0.161l-0.113,-0.162l-0.111,-0.162l-0.11,-0.163l-0.109,-0.164l-0.108,-0.165l-0.107,-0.165l-0.107,-0.165l-0.105,-0.167l-0.104,-0.167l-0.103,-0.167l-0.102,-0.169l-0.101,-0.168l-0.1,-0.17l-0.099,-0.17l-0.097,-0.171l-0.097,-0.171l-0.096,-0.172l-0.095,-0.172l-0.093,-0.173l-0.093,-0.174l-0.091,-0.174l-0.091,-0.175l-0.089,-0.175l-0.089,-0.176l-0.087,-0.177l-0.086,-0.177l-0.085,-0.177l-0.084,-0.178l-0.083,-0.179l-0.082,-0.179l3.828,-3.301l-0.069,-0.177l-0.067,-0.177l-0.066,-0.178l-0.065,-0.178l-0.063,-0.179l-0.063,-0.179l-0.061,-0.18l-0.06,-0.18l-0.058,-0.18l-0.057,-0.181l-0.056,-0.181l-0.055,-0.181l-0.054,-0.182l-0.052,-0.182l-0.051,-0.183l-0.05,-0.182l-0.048,-0.184l-0.047,-0.183l-0.046,-0.184l-0.045,-0.184l-0.043,-0.185l-0.042,-0.185l-0.041,-0.185l-0.039,-0.185l-0.038,-0.186l-0.037,-0.186l-0.036,-0.186l-0.034,-0.187l-0.033,-0.186l-0.032,-0.187l-0.03,-0.188l-0.029,-0.187l-4.965,-0.945l-0.019,-0.196l-0.018,-0.196l-0.016,-0.196l-0.015,-0.197l-0.014,-0.196l-0.013,-0.197l-0.011,-0.196l-0.01,-0.197l-0.009,-0.196l-0.008,-0.197l-0.007,-0.196l-0.005,-0.197l-0.005,-0.197l-0.003,-0.197l-0.001,-0.196l-0.001,-0.197l0.001,-0.197l0.001,-0.196l0.003,-0.197l0.005,-0.197l0.005,-0.197l0.007,-0.196l0.008,-0.197l0.009,-0.196l0.01,-0.197l0.011,-0.196l0.013,-0.197l0.014,-0.196l0.015,-0.197l0.016,-0.196l0.018,-0.196l0.019,-0.196l4.965,-0.945l0.029,-0.187l0.03,-0.188l0.032,-0.187l0.033,-0.186l0.034,-0.187l0.036,-0.186l0.037,-0.186l0.038,-0.186l0.039,-0.185l0.041,-0.185l0.042,-0.185l0.043,-0.185l0.045,-0.184l0.046,-0.184l0.047,-0.183l0.048,-0.184l0.05,-0.182l0.051,-0.183l0.052,-0.182l0.054,-0.182l0.055,-0.181l0.056,-0.181l0.057,-0.181l0.058,-0.18l0.06,-0.18l0.061,-0.18l0.063,-0.179l0.063,-0.179l0.065,-0.178l0.066,-0.178l0.067,-0.177l0.069,-0.177l-3.828,-3.301l0.082,-0.179l0.083,-0.179l0.084,-0.178l0.085,-0.177l0.086,-0.177l0.087,-0.177l0.089,-0.176l0.089,-0.175l0.091,-0.175l0.091,-0.174l0.093,-0.174l0.093,-0.173l0.095,-0.172l0.096,-0.172l0.097,-0.171l0.097,-0.171l0.099,-0.17l0.1,-0.17l0.101,-0.168l0.102,-0.169l0.103,-0.167l0.104,-0.167l0.105,-0.167l0.107,-0.165l0.107,-0.165l0.108,-0.165l0.109,-0.164l0.11,-0.163l0.111,-0.162l0.113,-0.162l0.113,-0.161l0.114,-0.161l4.773,1.665l0.119,-0.148l0.12,-0.147l0.121,-0.146l0.122,-0.145l0.122,-0.145l0.124,-0.143l0.125,-0.143l0.126,-0.142l0.127,-0.14l0.128,-0.14l0.129,-0.139l0.13,-0.139l0.13,-0.137l0.132,-0.136l0.133,-0.135l0.133,-0.135l0.135,-0.133l0.135,-0.133l0.136,-0.132l0.137,-0.13l0.139,-0.13l0.139,-0.129l0.14,-0.128l0.14,-0.127l0.142,-0.126l0.143,-0.125l0.143,-0.124l0.145,-0.122l0.145,-0.122l0.146,-0.121l0.147,-0.12l0.148,-0.119l-1.665,-4.773l0.161,-0.114l0.161,-0.113l0.162,-0.113l0.162,-0.111l0.163,-0.11l0.164,-0.109l0.165,-0.108l0.165,-0.107l0.165,-0.107l0.167,-0.105l0.167,-0.104l0.167,-0.103l0.169,-0.102l0.168,-0.101l0.17,-0.1l0.17,-0.099l0.171,-0.097l0.171,-0.097l0.172,-0.096l0.172,-0.095l0.173,-0.093l0.174,-0.093l0.174,-0.091l0.175,-0.091l0.175,-0.089l0.176,-0.089l0.177,-0.087l0.177,-0.086l0.177,-0.085l0.178,-0.084l0.179,-0.083l0.179,-0.082l3.301,3.828l0.177,-0.069l0.177,-0.067l0.178,-0.066l0.178,-0.065l0.179,-0.063l0.179,-0.063l0.18,-0.061l0.18,-0.06l0.18,-0.058l0.181,-0.057l0.181,-0.056l0.181,-0.055l0.182,-0.054l0.182,-0.052l0.183,-0.051l0.182,-0.05l0.184,-0.048l0.183,-0.047l0.184,-0.046l0.184,-0.045l0.185,-0.043l0.185,-0.042l0.185,-0.041l0.185,-0.039l0.186,-0.038l0.186,-0.037l0.186,-0.036l0.187,-0.034l0.186,-0.033l0.187,-0.032l0.188,-0.03l0.187,-0.029l0.945,-4.965l0.196,-0.019l0.196,-0.018l0.196,-0.016l0.197,-0.015l0.196,-0.014l0.197,-0.013l0.196,-0.011l0.197,-0.01l0.196,-0.009l0.197,-0.008l0.196,-0.007l0.197,-0.005l0.197,-0.005l0.197,-0.003l0.196,-0.001l0.197,-0.001l0.197,0.001Zm-0.389,0.825l-0.191,0.001l-0.192,0.003l-0.192,0.004l-0.191,0.006l-0.192,0.006l-0.191,0.008l-0.192,0.009l-0.191,0.01l-0.192,0.011l-0.191,0.012l-0.192,0.014l-0.151,0.011l-0.828,4.353l-0.04,0.139l-0.063,0.13l-0.085,0.117l-0.104,0.101l-0.12,0.081l-0.132,0.058l-0.14,0.035l-0.185,0.029l-0.182,0.029l-0.181,0.031l-0.181,0.032l-0.181,0.033l-0.181,0.035l-0.18,0.035l-0.18,0.037l-0.18,0.039l-0.179,0.039l-0.18,0.041l-0.178,0.042l-0.179,0.043l-0.178,0.045l-0.178,0.045l-0.178,0.047l-0.177,0.049l-0.177,0.049l-0.177,0.051l-0.176,0.051l-0.176,0.054l-0.176,0.054l-0.175,0.055l-0.175,0.057l-0.174,0.058l-0.175,0.059l-0.173,0.061l-0.173,0.061l-0.173,0.063l-0.173,0.064l-0.172,0.066l-0.174,0.067l-0.139,0.04l-0.144,0.016l-0.144,-0.01l-0.14,-0.035l-0.132,-0.059l-0.12,-0.082l-0.104,-0.1l-2.893,-3.356l-0.138,0.066l-0.172,0.084l-0.172,0.085l-0.171,0.086l-0.171,0.087l-0.17,0.088l-0.17,0.089l-0.169,0.09l-0.169,0.092l-0.168,0.092l-0.167,0.093l-0.167,0.095l-0.166,0.095l-0.166,0.096l-0.165,0.098l-0.165,0.098l-0.164,0.099l-0.163,0.101l-0.163,0.101l-0.162,0.103l-0.161,0.103l-0.161,0.104l-0.16,0.106l-0.16,0.106l-0.159,0.107l-0.125,0.086l1.459,4.184l0.035,0.14l0.011,0.144l-0.015,0.144l-0.04,0.139l-0.063,0.13l-0.086,0.117l-0.104,0.1l-0.145,0.118l-0.143,0.116l-0.142,0.117l-0.141,0.118l-0.14,0.12l-0.139,0.12l-0.138,0.121l-0.138,0.122l-0.136,0.123l-0.136,0.124l-0.135,0.125l-0.134,0.126l-0.133,0.127l-0.132,0.127l-0.131,0.129l-0.131,0.129l-0.129,0.131l-0.129,0.131l-0.127,0.132l-0.127,0.133l-0.126,0.134l-0.125,0.135l-0.124,0.136l-0.123,0.136l-0.122,0.138l-0.121,0.138l-0.12,0.139l-0.12,0.14l-0.118,0.141l-0.117,0.142l-0.116,0.143l-0.118,0.145l-0.1,0.104l-0.117,0.086l-0.13,0.063l-0.139,0.04l-0.144,0.015l-0.144,-0.011l-0.14,-0.035l-4.184,-1.459l-0.086,0.125l-0.107,0.159l-0.106,0.16l-0.106,0.16l-0.104,0.161l-0.103,0.161l-0.103,0.162l-0.101,0.163l-0.101,0.163l-0.099,0.164l-0.098,0.165l-0.098,0.165l-0.096,0.166l-0.095,0.166l-0.095,0.167l-0.093,0.167l-0.092,0.168l-0.092,0.169l-0.09,0.169l-0.089,0.17l-0.088,0.17l-0.087,0.171l-0.086,0.171l-0.085,0.172l-0.084,0.172l-0.066,0.138l3.356,2.893l0.1,0.104l0.082,0.12l0.059,0.132l0.035,0.14l0.01,0.144l-0.016,0.144l-0.04,0.139l-0.067,0.174l-0.066,0.172l-0.064,0.173l-0.063,0.173l-0.061,0.173l-0.061,0.173l-0.059,0.175l-0.058,0.174l-0.057,0.175l-0.055,0.175l-0.054,0.176l-0.054,0.176l-0.051,0.176l-0.051,0.177l-0.049,0.177l-0.049,0.177l-0.047,0.178l-0.045,0.178l-0.045,0.178l-0.043,0.179l-0.042,0.178l-0.041,0.18l-0.039,0.179l-0.039,0.18l-0.037,0.18l-0.035,0.18l-0.035,0.181l-0.033,0.181l-0.032,0.181l-0.031,0.181l-0.029,0.182l-0.029,0.185l-0.035,0.14l-0.058,0.132l-0.081,0.12l-0.101,0.104l-0.117,0.085l-0.13,0.063l-0.139,0.04l-4.353,0.828l-0.011,0.151l-0.014,0.192l-0.012,0.191l-0.011,0.192l-0.01,0.191l-0.009,0.192l-0.008,0.191l-0.006,0.192l-0.006,0.191l-0.004,0.192l-0.003,0.192l-0.001,0.191l-0.001,0.192l0.001,0.192l0.001,0.191l0.003,0.192l0.004,0.192l0.006,0.191l0.006,0.192l0.008,0.191l0.009,0.192l0.01,0.191l0.011,0.192l0.012,0.191l0.014,0.192l0.011,0.151l4.353,0.828l0.139,0.04l0.13,0.063l0.117,0.085l0.101,0.104l0.081,0.12l0.058,0.132l0.035,0.14l0.029,0.185l0.029,0.182l0.031,0.181l0.032,0.181l0.033,0.181l0.035,0.181l0.035,0.18l0.037,0.18l0.039,0.18l0.039,0.179l0.041,0.18l0.042,0.178l0.043,0.179l0.045,0.178l0.045,0.178l0.047,0.178l0.049,0.177l0.049,0.177l0.051,0.177l0.051,0.176l0.054,0.176l0.054,0.176l0.055,0.175l0.057,0.175l0.058,0.174l0.059,0.175l0.061,0.173l0.061,0.173l0.063,0.173l0.064,0.173l0.066,0.172l0.067,0.174l0.04,0.139l0.016,0.144l-0.01,0.144l-0.035,0.14l-0.059,0.133l-0.082,0.119l-0.1,0.104l-3.356,2.893l0.066,0.138l0.084,0.172l0.085,0.172l0.086,0.171l0.087,0.171l0.088,0.17l0.089,0.17l0.09,0.169l0.092,0.169l0.092,0.168l0.093,0.167l0.095,0.167l0.095,0.166l0.096,0.166l0.098,0.165l0.098,0.165l0.099,0.164l0.101,0.163l0.101,0.163l0.103,0.162l0.103,0.161l0.104,0.161l0.106,0.16l0.106,0.16l0.107,0.159l0.086,0.125l4.184,-1.459l0.14,-0.035l0.144,-0.011l0.144,0.015l0.139,0.04l0.13,0.063l0.117,0.086l0.1,0.104l0.118,0.145l0.116,0.143l0.117,0.142l0.118,0.141l0.12,0.14l0.12,0.139l0.121,0.138l0.122,0.138l0.123,0.136l0.124,0.136l0.125,0.135l0.126,0.134l0.127,0.133l0.127,0.132l0.129,0.131l0.129,0.131l0.131,0.129l0.131,0.129l0.132,0.127l0.133,0.127l0.134,0.126l0.135,0.125l0.136,0.124l0.136,0.123l0.138,0.122l0.138,0.121l0.139,0.12l0.14,0.12l0.141,0.118l0.142,0.117l0.143,0.116l0.145,0.118l0.104,0.1l0.086,0.117l0.063,0.13l0.04,0.139l0.015,0.144l-0.011,0.144l-0.035,0.14l-1.459,4.184l0.125,0.086l0.159,0.107l0.16,0.106l0.16,0.106l0.161,0.104l0.161,0.103l0.162,0.103l0.163,0.101l0.163,0.101l0.164,0.099l0.165,0.098l0.165,0.098l0.166,0.096l0.166,0.095l0.167,0.095l0.167,0.093l0.168,0.092l0.169,0.092l0.169,0.09l0.17,0.089l0.17,0.088l0.171,0.087l0.171,0.086l0.172,0.085l0.172,0.084l0.138,0.066l2.893,-3.356l0.104,-0.1l0.119,-0.082l0.133,-0.059l0.14,-0.035l0.144,-0.01l0.144,0.016l0.139,0.04l0.174,0.067l0.172,0.066l0.173,0.064l0.173,0.063l0.173,0.061l0.173,0.061l0.175,0.059l0.174,0.058l0.175,0.057l0.175,0.055l0.176,0.054l0.176,0.054l0.176,0.051l0.177,0.051l0.177,0.049l0.177,0.049l0.178,0.047l0.178,0.045l0.178,0.045l0.179,0.043l0.178,0.042l0.18,0.041l0.179,0.039l0.18,0.039l0.18,0.037l0.18,0.035l0.181,0.035l0.181,0.033l0.181,0.032l0.181,0.031l0.182,0.029l0.185,0.029l0.14,0.035l0.132,0.058l0.12,0.081l0.104,0.101l0.085,0.117l0.063,0.13l0.04,0.139l0.828,4.353l0.151,0.011l0.192,0.014l0.191,0.012l0.192,0.011l0.191,0.01l0.192,0.009l0.191,0.008l0.192,0.006l0.191,0.006l0.192,0.004l0.192,0.003l0.191,0.001l0.192,0.001l0.192,-0.001l0.191,-0.001l0.192,-0.003l0.192,-0.004l0.191,-0.006l0.192,-0.006l0.191,-0.008l0.192,-0.009l0.191,-0.01l0.192,-0.011l0.191,-0.012l0.192,-0.014l0.151,-0.011l0.828,-4.353l0.04,-0.139l0.063,-0.13l0.085,-0.117l0.104,-0.101l0.12,-0.081l0.132,-0.058l0.14,-0.035l0.185,-0.029l0.182,-0.029l0.181,-0.031l0.181,-0.032l0.181,-0.033l0.181,-0.035l0.18,-0.035l0.18,-0.037l0.18,-0.039l0.179,-0.039l0.18,-0.041l0.178,-0.042l0.179,-0.043l0.178,-0.045l0.178,-0.045l0.178,-0.047l0.177,-0.049l0.177,-0.049l0.177,-0.051l0.176,-0.051l0.176,-0.054l0.176,-0.054l0.175,-0.055l0.175,-0.057l0.174,-0.058l0.175,-0.059l0.173,-0.061l0.173,-0.061l0.173,-0.063l0.173,-0.064l0.172,-0.066l0.174,-0.067l0.139,-0.04l0.144,-0.016l0.144,0.01l0.14,0.035l0.133,0.059l0.119,0.082l0.104,0.1l2.893,3.356l0.138,-0.066l0.172,-0.084l0.172,-0.085l0.171,-0.086l0.171,-0.087l0.17,-0.088l0.17,-0.089l0.169,-0.09l0.169,-0.092l0.168,-0.092l0.167,-0.093l0.167,-0.095l0.166,-0.095l0.166,-0.096l0.165,-0.098l0.165,-0.098l0.164,-0.099l0.163,-0.101l0.163,-0.101l0.162,-0.103l0.161,-0.103l0.161,-0.104l0.16,-0.106l0.16,-0.106l0.159,-0.107l0.125,-0.086l-1.459,-4.184l-0.035,-0.14l-0.011,-0.144l0.015,-0.144l0.04,-0.139l0.063,-0.13l0.086,-0.117l0.104,-0.1l0.145,-0.118l0.143,-0.116l0.142,-0.117l0.141,-0.118l0.14,-0.12l0.139,-0.12l0.138,-0.121l0.138,-0.122l0.136,-0.123l0.136,-0.124l0.135,-0.125l0.134,-0.126l0.133,-0.127l0.132,-0.127l0.131,-0.129l0.131,-0.129l0.129,-0.131l0.129,-0.131l0.127,-0.132l0.127,-0.133l0.126,-0.134l0.125,-0.135l0.124,-0.136l0.123,-0.136l0.122,-0.138l0.121,-0.138l0.12,-0.139l0.12,-0.14l0.118,-0.141l0.117,-0.142l0.116,-0.143l0.118,-0.145l0.1,-0.104l0.117,-0.086l0.13,-0.063l0.139,-0.04l0.144,-0.015l0.144,0.011l0.14,0.035l4.184,1.459l0.086,-0.125l0.107,-0.159l0.106,-0.16l0.106,-0.16l0.104,-0.161l0.103,-0.161l0.103,-0.162l0.101,-0.163l0.101,-0.163l0.099,-0.164l0.098,-0.165l0.098,-0.165l0.096,-0.166l0.095,-0.166l0.095,-0.167l0.093,-0.167l0.092,-0.168l0.092,-0.169l0.09,-0.169l0.089,-0.17l0.088,-0.17l0.087,-0.171l0.086,-0.171l0.085,-0.172l0.084,-0.172l0.066,-0.138l-3.356,-2.893l-0.1,-0.104l-0.082,-0.119l-0.059,-0.133l-0.035,-0.14l-0.01,-0.144l0.016,-0.144l0.04,-0.139l0.067,-0.174l0.066,-0.172l0.064,-0.173l0.063,-0.173l0.061,-0.173l0.061,-0.173l0.059,-0.175l0.058,-0.174l0.057,-0.175l0.055,-0.175l0.054,-0.176l0.054,-0.176l0.051,-0.176l0.051,-0.177l0.049,-0.177l0.049,-0.177l0.047,-0.178l0.045,-0.178l0.045,-0.178l0.043,-0.179l0.042,-0.178l0.041,-0.18l0.039,-0.179l0.039,-0.18l0.037,-0.18l0.035,-0.18l0.035,-0.181l0.033,-0.181l0.032,-0.181l0.031,-0.181l0.029,-0.182l0.029,-0.185l0.035,-0.14l0.058,-0.132l0.081,-0.12l0.101,-0.104l0.117,-0.085l0.13,-0.063l0.139,-0.04l4.353,-0.828l0.011,-0.151l0.014,-0.192l0.012,-0.191l0.011,-0.192l0.01,-0.191l0.009,-0.192l0.008,-0.191l0.006,-0.192l0.006,-0.191l0.004,-0.192l0.003,-0.192l0.001,-0.191l0.001,-0.192l-0.001,-0.192l-0.001,-0.191l-0.003,-0.192l-0.004,-0.192l-0.006,-0.191l-0.006,-0.192l-0.008,-0.191l-0.009,-0.192l-0.01,-0.191l-0.011,-0.192l-0.012,-0.191l-0.014,-0.192l-0.011,-0.151l-4.353,-0.828l-0.139,-0.04l-0.13,-0.063l-0.117,-0.085l-0.101,-0.104l-0.081,-0.12l-0.058,-0.132l-0.035,-0.14l-0.029,-0.185l-0.029,-0.182l-0.031,-0.181l-0.032,-0.181l-0.033,-0.181l-0.035,-0.181l-0.035,-0.18l-0.037,-0.18l-0.039,-0.18l-0.039,-0.179l-0.041,-0.18l-0.042,-0.178l-0.043,-0.179l-0.045,-0.178l-0.045,-0.178l-0.047,-0.178l-0.049,-0.177l-0.049,-0.177l-0.051,-0.177l-0.051,-0.176l-0.054,-0.176l-0.054,-0.176l-0.055,-0.175l-0.057,-0.175l-0.058,-0.174l-0.059,-0.175l-0.061,-0.173l-0.061,-0.173l-0.063,-0.173l-0.064,-0.173l-0.066,-0.172l-0.067,-0.174l-0.04,-0.139l-0.016,-0.144l0.01,-0.144l0.035,-0.14l0.059,-0.133l0.082,-0.119l0.1,-0.104l3.356,-2.893l-0.066,-0.138l-0.084,-0.172l-0.085,-0.172l-0.086,-0.171l-0.087,-0.171l-0.088,-0.17l-0.089,-0.17l-0.09,-0.169l-0.092,-0.169l-0.092,-0.168l-0.093,-0.167l-0.095,-0.167l-0.095,-0.166l-0.096,-0.166l-0.098,-0.165l-0.098,-0.165l-0.099,-0.164l-0.101,-0.163l-0.101,-0.163l-0.103,-0.162l-0.103,-0.161l-0.104,-0.161l-0.106,-0.16l-0.106,-0.16l-0.107,-0.159l-0.086,-0.125l-4.184,1.459l-0.14,0.035l-0.144,0.011l-0.144,-0.015l-0.139,-0.04l-0.13,-0.063l-0.117,-0.086l-0.1,-0.104l-0.118,-0.145l-0.116,-0.143l-0.117,-0.142l-0.118,-0.141l-0.12,-0.14l-0.12,-0.139l-0.121,-0.138l-0.122,-0.138l-0.123,-0.136l-0.124,-0.136l-0.125,-0.135l-0.126,-0.134l-0.127,-0.133l-0.127,-0.132l-0.129,-0.131l-0.129,-0.131l-0.131,-0.129l-0.131,-0.129l-0.132,-0.127l-0.133,-0.127l-0.134,-0.126l-0.135,-0.125l-0.136,-0.124l-0.136,-0.123l-0.138,-0.122l-0.138,-0.121l-0.139,-0.12l-0.14,-0.12l-0.141,-0.118l-0.142,-0.117l-0.143,-0.116l-0.145,-0.118l-0.104,-0.1l-0.086,-0.117l-0.063,-0.13l-0.04,-0.139l-0.015,-0.144l0.011,-0.144l0.035,-0.14l1.459,-4.184l-0.125,-0.086l-0.159,-0.107l-0.16,-0.106l-0.16,-0.106l-0.161,-0.104l-0.161,-0.103l-0.162,-0.103l-0.163,-0.101l-0.163,-0.101l-0.164,-0.099l-0.165,-0.098l-0.165,-0.098l-0.166,-0.096l-0.166,-0.095l-0.167,-0.095l-0.167,-0.093l-0.168,-0.092l-0.169,-0.092l-0.169,-0.09l-0.17,-0.089l-0.17,-0.088l-0.171,-0.087l-0.171,-0.086l-0.172,-0.085l-0.172,-0.084l-0.138,-0.066l-2.893,3.356l-0.104,0.1l-0.119,0.082l-0.133,0.059l-0.14,0.035l-0.144,0.01l-0.144,-0.016l-0.139,-0.04l-0.174,-0.067l-0.172,-0.066l-0.173,-0.064l-0.173,-0.063l-0.173,-0.061l-0.173,-0.061l-0.175,-0.059l-0.174,-0.058l-0.175,-0.057l-0.175,-0.055l-0.176,-0.054l-0.176,-0.054l-0.176,-0.051l-0.177,-0.051l-0.177,-0.049l-0.177,-0.049l-0.178,-0.047l-0.178,-0.045l-0.178,-0.045l-0.179,-0.043l-0.178,-0.042l-0.18,-0.041l-0.179,-0.039l-0.18,-0.039l-0.18,-0.037l-0.18,-0.035l-0.181,-0.035l-0.181,-0.033l-0.181,-0.032l-0.181,-0.031l-0.182,-0.029l-0.185,-0.029l-0.14,-0.035l-0.132,-0.058l-0.12,-0.081l-0.104,-0.101l-0.085,-0.117l-0.063,-0.13l-0.04,-0.139l-0.828,-4.353l-0.151,-0.011l-0.192,-0.014l-0.191,-0.012l-0.192,-0.011l-0.191,-0.01l-0.192,-0.009l-0.191,-0.008l-0.192,-0.006l-0.191,-0.006l-0.192,-0.004l-0.192,-0.003l-0.191,-0.001l-0.192,-0.001l-0.192,0.001Zm0.285,24.01l0.093,0.002l0.093,0.003l0.093,0.004l0.092,0.005l0.092,0.007l0.092,0.007l0.091,0.009l0.091,0.01l0.091,0.011l0.09,0.012l0.09,0.013l0.09,0.015l0.089,0.015l0.089,0.016l0.089,0.018l0.088,0.019l0.088,0.019l0.087,0.021l0.087,0.022l0.087,0.023l0.086,0.024l0.086,0.025l0.085,0.026l0.085,0.027l0.084,0.028l0.084,0.029l0.084,0.03l0.083,0.031l0.082,0.032l0.082,0.033l0.082,0.034l0.081,0.034l0.08,0.036l0.08,0.037l0.08,0.038l0.078,0.038l0.079,0.04l0.078,0.04l0.077,0.042l0.076,0.042l0.077,0.043l0.075,0.044l0.075,0.045l0.074,0.046l0.074,0.047l0.073,0.047l0.073,0.048l0.072,0.05l0.071,0.05l0.07,0.051l0.07,0.051l0.07,0.053l0.068,0.053l0.069,0.054l0.067,0.055l0.067,0.056l0.066,0.056l0.065,0.058l0.064,0.058l0.064,0.058l0.064,0.06l0.062,0.06l0.062,0.061l0.061,0.062l0.06,0.063l0.06,0.063l0.058,0.064l0.058,0.064l0.058,0.065l0.056,0.066l0.056,0.067l0.055,0.067l0.054,0.069l0.053,0.068l0.053,0.07l0.051,0.07l0.051,0.07l0.05,0.071l0.05,0.072l0.048,0.073l0.047,0.073l0.047,0.074l0.046,0.074l0.045,0.075l0.044,0.075l0.043,0.077l0.042,0.076l0.042,0.077l0.04,0.078l0.04,0.079l0.038,0.078l0.038,0.08l0.037,0.08l0.036,0.08l0.034,0.081l0.034,0.082l0.033,0.082l0.032,0.082l0.031,0.083l0.03,0.084l0.029,0.084l0.028,0.084l0.027,0.085l0.026,0.085l0.025,0.086l0.024,0.086l0.023,0.087l0.022,0.087l0.021,0.087l0.019,0.088l0.019,0.088l0.018,0.089l0.016,0.089l0.015,0.089l0.015,0.09l0.013,0.09l0.012,0.09l0.011,0.091l0.01,0.091l0.009,0.091l0.007,0.092l0.007,0.092l0.005,0.092l0.004,0.093l0.003,0.093l0.002,0.093l0,0.093l0,0.093l-0.002,0.093l-0.003,0.093l-0.004,0.093l-0.005,0.092l-0.007,0.092l-0.007,0.092l-0.009,0.091l-0.01,0.091l-0.011,0.091l-0.012,0.09l-0.013,0.09l-0.015,0.09l-0.015,0.089l-0.016,0.089l-0.018,0.089l-0.019,0.088l-0.019,0.088l-0.021,0.087l-0.022,0.087l-0.023,0.087l-0.024,0.086l-0.025,0.086l-0.026,0.085l-0.027,0.085l-0.028,0.084l-0.029,0.084l-0.03,0.084l-0.031,0.083l-0.032,0.082l-0.033,0.082l-0.034,0.082l-0.034,0.081l-0.036,0.08l-0.037,0.08l-0.038,0.08l-0.038,0.078l-0.04,0.079l-0.04,0.078l-0.042,0.077l-0.042,0.076l-0.043,0.077l-0.044,0.075l-0.045,0.075l-0.046,0.074l-0.047,0.074l-0.047,0.073l-0.048,0.073l-0.05,0.072l-0.05,0.071l-0.051,0.07l-0.051,0.07l-0.053,0.07l-0.053,0.068l-0.054,0.069l-0.055,0.067l-0.056,0.067l-0.056,0.066l-0.058,0.065l-0.058,0.064l-0.058,0.064l-0.06,0.063l-0.06,0.063l-0.061,0.062l-0.062,0.061l-0.063,0.06l-0.063,0.06l-0.064,0.058l-0.064,0.058l-0.065,0.058l-0.066,0.056l-0.067,0.056l-0.067,0.055l-0.069,0.054l-0.068,0.053l-0.07,0.053l-0.07,0.051l-0.07,0.051l-0.071,0.05l-0.072,0.05l-0.073,0.048l-0.073,0.047l-0.074,0.047l-0.074,0.046l-0.075,0.045l-0.075,0.044l-0.077,0.043l-0.076,0.042l-0.077,0.042l-0.078,0.04l-0.079,0.04l-0.078,0.038l-0.08,0.038l-0.08,0.037l-0.08,0.036l-0.081,0.034l-0.082,0.034l-0.082,0.033l-0.082,0.032l-0.083,0.031l-0.084,0.03l-0.084,0.029l-0.084,0.028l-0.085,0.027l-0.085,0.026l-0.086,0.025l-0.086,0.024l-0.087,0.023l-0.087,0.022l-0.087,0.021l-0.088,0.019l-0.088,0.019l-0.089,0.018l-0.089,0.016l-0.089,0.015l-0.09,0.015l-0.09,0.013l-0.09,0.012l-0.091,0.011l-0.091,0.01l-0.091,0.009l-0.092,0.007l-0.092,0.007l-0.092,0.005l-0.093,0.004l-0.093,0.003l-0.093,0.002l-0.093,0l-0.093,0l-0.093,-0.002l-0.093,-0.003l-0.093,-0.004l-0.092,-0.005l-0.092,-0.007l-0.092,-0.007l-0.091,-0.009l-0.091,-0.01l-0.091,-0.011l-0.09,-0.012l-0.09,-0.013l-0.09,-0.015l-0.089,-0.015l-0.089,-0.016l-0.089,-0.018l-0.088,-0.019l-0.088,-0.019l-0.087,-0.021l-0.087,-0.022l-0.087,-0.023l-0.086,-0.024l-0.086,-0.025l-0.085,-0.026l-0.085,-0.027l-0.084,-0.028l-0.084,-0.029l-0.084,-0.03l-0.083,-0.031l-0.082,-0.032l-0.082,-0.033l-0.082,-0.034l-0.081,-0.034l-0.08,-0.036l-0.08,-0.037l-0.08,-0.038l-0.078,-0.038l-0.079,-0.04l-0.078,-0.04l-0.077,-0.042l-0.076,-0.042l-0.077,-0.043l-0.075,-0.044l-0.075,-0.045l-0.074,-0.046l-0.074,-0.047l-0.073,-0.047l-0.073,-0.048l-0.072,-0.05l-0.071,-0.05l-0.07,-0.051l-0.07,-0.051l-0.07,-0.053l-0.068,-0.053l-0.069,-0.054l-0.067,-0.055l-0.067,-0.056l-0.066,-0.056l-0.065,-0.058l-0.064,-0.058l-0.064,-0.058l-0.063,-0.06l-0.063,-0.06l-0.062,-0.061l-0.061,-0.062l-0.06,-0.062l-0.06,-0.064l-0.058,-0.064l-0.058,-0.064l-0.058,-0.065l-0.056,-0.066l-0.056,-0.067l-0.055,-0.067l-0.054,-0.069l-0.053,-0.068l-0.053,-0.07l-0.051,-0.07l-0.051,-0.07l-0.05,-0.071l-0.05,-0.072l-0.048,-0.073l-0.047,-0.073l-0.047,-0.074l-0.046,-0.074l-0.045,-0.075l-0.044,-0.075l-0.043,-0.077l-0.042,-0.076l-0.042,-0.077l-0.04,-0.078l-0.04,-0.079l-0.038,-0.078l-0.038,-0.08l-0.037,-0.08l-0.036,-0.08l-0.034,-0.081l-0.034,-0.082l-0.033,-0.082l-0.032,-0.082l-0.031,-0.083l-0.03,-0.084l-0.029,-0.084l-0.028,-0.084l-0.027,-0.085l-0.026,-0.085l-0.025,-0.086l-0.024,-0.086l-0.023,-0.087l-0.022,-0.087l-0.021,-0.087l-0.019,-0.088l-0.019,-0.088l-0.018,-0.089l-0.016,-0.089l-0.015,-0.089l-0.015,-0.09l-0.013,-0.09l-0.012,-0.09l-0.011,-0.091l-0.01,-0.091l-0.009,-0.091l-0.007,-0.092l-0.007,-0.092l-0.005,-0.092l-0.004,-0.093l-0.003,-0.093l-0.002,-0.093l0,-0.093l0,-0.093l0.002,-0.093l0.003,-0.093l0.004,-0.093l0.005,-0.092l0.007,-0.092l0.007,-0.092l0.009,-0.091l0.01,-0.091l0.011,-0.091l0.012,-0.09l0.013,-0.09l0.015,-0.09l0.015,-0.089l0.016,-0.089l0.018,-0.089l0.019,-0.088l0.019,-0.088l0.021,-0.087l0.022,-0.087l0.023,-0.087l0.024,-0.086l0.025,-0.086l0.026,-0.085l0.027,-0.085l0.028,-0.084l0.029,-0.084l0.03,-0.084l0.031,-0.083l0.032,-0.082l0.033,-0.082l0.034,-0.082l0.034,-0.081l0.036,-0.08l0.037,-0.08l0.038,-0.08l0.038,-0.078l0.04,-0.079l0.04,-0.078l0.042,-0.077l0.042,-0.076l0.043,-0.077l0.044,-0.075l0.045,-0.075l0.046,-0.074l0.047,-0.074l0.047,-0.073l0.048,-0.073l0.05,-0.072l0.05,-0.071l0.051,-0.07l0.051,-0.07l0.053,-0.07l0.053,-0.068l0.054,-0.069l0.055,-0.067l0.056,-0.067l0.056,-0.066l0.058,-0.065l0.058,-0.064l0.058,-0.064l0.06,-0.064l0.06,-0.062l0.061,-0.062l0.062,-0.061l0.062,-0.06l0.064,-0.06l0.064,-0.058l0.064,-0.058l0.065,-0.058l0.066,-0.056l0.067,-0.056l0.067,-0.055l0.069,-0.054l0.068,-0.053l0.07,-0.053l0.07,-0.051l0.07,-0.051l0.071,-0.05l0.072,-0.05l0.073,-0.048l0.073,-0.047l0.074,-0.047l0.074,-0.046l0.075,-0.045l0.075,-0.044l0.077,-0.043l0.076,-0.042l0.077,-0.042l0.078,-0.04l0.079,-0.04l0.078,-0.038l0.08,-0.038l0.08,-0.037l0.08,-0.036l0.081,-0.034l0.082,-0.034l0.082,-0.033l0.082,-0.032l0.083,-0.031l0.084,-0.03l0.084,-0.029l0.084,-0.028l0.085,-0.027l0.085,-0.026l0.086,-0.025l0.086,-0.024l0.087,-0.023l0.087,-0.022l0.087,-0.021l0.088,-0.019l0.088,-0.019l0.089,-0.018l0.089,-0.016l0.089,-0.015l0.09,-0.015l0.09,-0.013l0.09,-0.012l0.091,-0.011l0.091,-0.01l0.091,-0.009l0.092,-0.007l0.092,-0.007l0.092,-0.005l0.093,-0.004l0.093,-0.003l0.093,-0.002l0.093,0l0.093,0Zm-0.176,0.825l-0.082,0.002l-0.083,0.003l-0.082,0.003l-0.082,0.005l-0.081,0.006l-0.082,0.006l-0.081,0.008l-0.08,0.009l-0.081,0.009l-0.08,0.011l-0.079,0.012l-0.08,0.012l-0.079,0.014l-0.079,0.015l-0.078,0.015l-0.078,0.017l-0.078,0.017l-0.077,0.019l-0.077,0.019l-0.077,0.02l-0.076,0.021l-0.076,0.022l-0.076,0.023l-0.075,0.024l-0.075,0.025l-0.074,0.026l-0.074,0.026l-0.073,0.028l-0.073,0.028l-0.073,0.029l-0.072,0.03l-0.072,0.031l-0.071,0.032l-0.071,0.032l-0.07,0.034l-0.07,0.034l-0.069,0.035l-0.069,0.036l-0.069,0.037l-0.068,0.037l-0.067,0.038l-0.067,0.039l-0.066,0.04l-0.066,0.041l-0.066,0.041l-0.064,0.042l-0.065,0.043l-0.063,0.044l-0.064,0.044l-0.062,0.045l-0.062,0.046l-0.062,0.047l-0.061,0.047l-0.06,0.048l-0.06,0.048l-0.059,0.05l-0.058,0.05l-0.058,0.051l-0.057,0.051l-0.057,0.052l-0.056,0.053l-0.056,0.054l-0.054,0.054l-0.054,0.054l-0.054,0.056l-0.053,0.056l-0.052,0.057l-0.051,0.057l-0.051,0.058l-0.05,0.058l-0.05,0.059l-0.048,0.06l-0.048,0.06l-0.047,0.061l-0.047,0.062l-0.046,0.062l-0.045,0.062l-0.044,0.064l-0.044,0.063l-0.043,0.065l-0.042,0.064l-0.041,0.066l-0.041,0.066l-0.04,0.066l-0.039,0.067l-0.038,0.067l-0.037,0.068l-0.037,0.069l-0.036,0.069l-0.035,0.069l-0.034,0.07l-0.034,0.07l-0.032,0.071l-0.032,0.071l-0.031,0.072l-0.03,0.072l-0.029,0.073l-0.028,0.073l-0.028,0.073l-0.026,0.074l-0.026,0.074l-0.025,0.075l-0.024,0.075l-0.023,0.076l-0.022,0.076l-0.021,0.076l-0.02,0.077l-0.019,0.077l-0.019,0.077l-0.017,0.078l-0.017,0.078l-0.015,0.078l-0.015,0.079l-0.014,0.079l-0.012,0.08l-0.012,0.079l-0.011,0.08l-0.009,0.081l-0.009,0.08l-0.008,0.081l-0.006,0.082l-0.006,0.081l-0.005,0.082l-0.003,0.082l-0.003,0.083l-0.002,0.082l0,0.083l0,0.083l0.002,0.082l0.003,0.083l0.003,0.082l0.005,0.082l0.006,0.081l0.006,0.082l0.008,0.081l0.009,0.08l0.009,0.081l0.011,0.08l0.012,0.079l0.012,0.08l0.014,0.079l0.015,0.079l0.015,0.078l0.017,0.078l0.017,0.078l0.019,0.077l0.019,0.077l0.02,0.077l0.021,0.076l0.022,0.076l0.023,0.076l0.024,0.075l0.025,0.075l0.026,0.074l0.026,0.074l0.028,0.073l0.028,0.073l0.029,0.073l0.03,0.072l0.031,0.072l0.032,0.071l0.032,0.071l0.034,0.07l0.034,0.07l0.035,0.069l0.036,0.069l0.037,0.069l0.037,0.068l0.038,0.067l0.039,0.067l0.04,0.066l0.041,0.066l0.041,0.066l0.042,0.064l0.043,0.065l0.044,0.063l0.044,0.064l0.045,0.062l0.046,0.062l0.047,0.062l0.047,0.061l0.048,0.06l0.048,0.06l0.05,0.059l0.05,0.058l0.051,0.058l0.051,0.057l0.052,0.057l0.053,0.056l0.054,0.056l0.054,0.054l0.054,0.054l0.056,0.054l0.056,0.053l0.057,0.052l0.057,0.051l0.058,0.051l0.058,0.05l0.059,0.05l0.06,0.048l0.06,0.048l0.061,0.047l0.062,0.047l0.062,0.046l0.062,0.045l0.064,0.044l0.063,0.044l0.065,0.043l0.064,0.042l0.066,0.041l0.066,0.041l0.066,0.04l0.067,0.039l0.067,0.038l0.068,0.037l0.069,0.037l0.069,0.036l0.069,0.035l0.07,0.034l0.07,0.034l0.071,0.032l0.071,0.032l0.072,0.031l0.072,0.03l0.073,0.029l0.073,0.028l0.073,0.028l0.074,0.026l0.074,0.026l0.075,0.025l0.075,0.024l0.076,0.023l0.076,0.022l0.076,0.021l0.077,0.02l0.077,0.019l0.077,0.019l0.078,0.017l0.078,0.017l0.078,0.015l0.079,0.015l0.079,0.014l0.08,0.012l0.079,0.012l0.08,0.011l0.081,0.009l0.08,0.009l0.081,0.008l0.082,0.006l0.081,0.006l0.082,0.005l0.082,0.003l0.083,0.003l0.082,0.002l0.083,0l0.083,0l0.082,-0.002l0.083,-0.003l0.082,-0.003l0.082,-0.005l0.081,-0.006l0.082,-0.006l0.081,-0.008l0.08,-0.009l0.081,-0.009l0.08,-0.011l0.079,-0.012l0.08,-0.012l0.079,-0.014l0.079,-0.015l0.078,-0.015l0.078,-0.017l0.078,-0.017l0.077,-0.019l0.077,-0.019l0.077,-0.02l0.076,-0.021l0.076,-0.022l0.076,-0.023l0.075,-0.024l0.075,-0.025l0.074,-0.026l0.074,-0.026l0.073,-0.028l0.073,-0.028l0.073,-0.029l0.072,-0.03l0.072,-0.031l0.071,-0.032l0.071,-0.032l0.07,-0.034l0.07,-0.034l0.069,-0.035l0.069,-0.036l0.069,-0.037l0.068,-0.037l0.067,-0.038l0.067,-0.039l0.066,-0.04l0.066,-0.041l0.066,-0.041l0.064,-0.042l0.065,-0.043l0.063,-0.044l0.064,-0.044l0.062,-0.045l0.062,-0.046l0.062,-0.047l0.061,-0.047l0.06,-0.048l0.06,-0.048l0.059,-0.05l0.058,-0.05l0.058,-0.051l0.057,-0.051l0.057,-0.052l0.056,-0.053l0.056,-0.054l0.054,-0.054l0.054,-0.054l0.054,-0.056l0.053,-0.056l0.052,-0.057l0.051,-0.057l0.051,-0.058l0.05,-0.058l0.05,-0.059l0.048,-0.06l0.048,-0.06l0.047,-0.061l0.047,-0.062l0.046,-0.062l0.045,-0.062l0.044,-0.064l0.044,-0.063l0.043,-0.065l0.042,-0.064l0.041,-0.066l0.041,-0.066l0.04,-0.066l0.039,-0.067l0.038,-0.067l0.037,-0.068l0.037,-0.069l0.036,-0.069l0.035,-0.069l0.034,-0.07l0.034,-0.07l0.032,-0.071l0.032,-0.071l0.031,-0.072l0.03,-0.072l0.029,-0.073l0.028,-0.073l0.028,-0.073l0.026,-0.074l0.026,-0.074l0.025,-0.075l0.024,-0.075l0.023,-0.076l0.022,-0.076l0.021,-0.076l0.02,-0.077l0.019,-0.077l0.019,-0.077l0.017,-0.078l0.017,-0.078l0.015,-0.078l0.015,-0.079l0.014,-0.079l0.012,-0.08l0.012,-0.079l0.011,-0.08l0.009,-0.081l0.009,-0.08l0.008,-0.081l0.006,-0.082l0.006,-0.081l0.005,-0.082l0.003,-0.082l0.003,-0.083l0.002,-0.082l0,-0.083l0,-0.083l-0.002,-0.082l-0.003,-0.083l-0.003,-0.082l-0.005,-0.082l-0.006,-0.081l-0.006,-0.082l-0.008,-0.081l-0.009,-0.08l-0.009,-0.081l-0.011,-0.08l-0.012,-0.079l-0.012,-0.08l-0.014,-0.079l-0.015,-0.079l-0.015,-0.078l-0.017,-0.078l-0.017,-0.078l-0.019,-0.077l-0.019,-0.077l-0.02,-0.077l-0.021,-0.076l-0.022,-0.076l-0.023,-0.076l-0.024,-0.075l-0.025,-0.075l-0.026,-0.074l-0.026,-0.074l-0.028,-0.073l-0.028,-0.073l-0.029,-0.073l-0.03,-0.072l-0.031,-0.072l-0.032,-0.071l-0.032,-0.071l-0.034,-0.07l-0.034,-0.07l-0.035,-0.069l-0.036,-0.069l-0.037,-0.069l-0.037,-0.068l-0.038,-0.067l-0.039,-0.067l-0.04,-0.066l-0.041,-0.066l-0.041,-0.066l-0.042,-0.064l-0.043,-0.065l-0.044,-0.063l-0.044,-0.064l-0.045,-0.062l-0.046,-0.062l-0.047,-0.062l-0.047,-0.061l-0.048,-0.06l-0.048,-0.06l-0.05,-0.059l-0.05,-0.058l-0.051,-0.058l-0.051,-0.057l-0.052,-0.057l-0.053,-0.056l-0.054,-0.056l-0.054,-0.054l-0.054,-0.054l-0.056,-0.054l-0.056,-0.053l-0.057,-0.052l-0.057,-0.051l-0.058,-0.051l-0.058,-0.05l-0.059,-0.05l-0.06,-0.048l-0.06,-0.048l-0.061,-0.047l-0.062,-0.047l-0.062,-0.046l-0.062,-0.045l-0.064,-0.044l-0.063,-0.044l-0.065,-0.043l-0.064,-0.042l-0.066,-0.041l-0.066,-0.041l-0.066,-0.04l-0.067,-0.039l-0.067,-0.038l-0.068,-0.037l-0.069,-0.037l-0.069,-0.036l-0.069,-0.035l-0.07,-0.034l-0.07,-0.034l-0.071,-0.032l-0.071,-0.032l-0.072,-0.031l-0.072,-0.03l-0.073,-0.029l-0.073,-0.028l-0.073,-0.028l-0.074,-0.026l-0.074,-0.026l-0.075,-0.025l-0.075,-0.024l-0.076,-0.023l-0.076,-0.022l-0.076,-0.021l-0.077,-0.02l-0.077,-0.019l-0.077,-0.019l-0.078,-0.017l-0.078,-0.017l-0.078,-0.015l-0.079,-0.015l-0.079,-0.014l-0.08,-0.012l-0.079,-0.012l-0.08,-0.011l-0.081,-0.009l-0.08,-0.009l-0.081,-0.008l-0.082,-0.006l-0.081,-0.006l-0.082,-0.005l-0.082,-0.003l-0.083,-0.003l-0.082,-0.002l-0.083,0l-0.083,0Z"/>
</g>
</svg>